{"title":"Raman Raghav 2.0 2016 Movies DVDScr XviD AAC New +Sample ~ ☻rDX☻","uid":15085324,"size":740005911,"categoryP":"video","categoryS":"movies","magnet":"?xt=urn:btih:591c8ee1c47e529ebd4e8427d201f63e7d12258e&amp;dn=Raman+Raghav+2.0+2016+Movies+DVDScr+XviD+AAC+New+%2BSample+%7E+%E2%98%BBrDX%E2%98%BB&amp;tr=udp%3A%2F%2Ftracker.leechers-paradise.org%3A6969&amp;tr=udp%3A%2F%2Fzer0day.ch%3A1337&amp;tr=udp%3A%2F%2Fopen.demonii.com%3A1337&amp;tr=udp%3A%2F%2Ftracker.coppersurfer.tk%3A6969&amp;tr=udp%3A%2F%2Fexodus.desync.com%3A6969","seeders":11,"leechers":3,"uploader":"basicssom","files":2,"time":1466880509,"description":"----------------------------------------------------------------\r\nRaman Raghav 2.0 2016 Hindi Movies DVDScr XviD AAC New Source with Sample ☻rDX☻\r\n\r\nSCREEN SHOTS &amp; POSTER:\r\n  \nhttp://mobileshosting.com/2016/6/call/index.htm  \nhttp://mobileshosting.com/2016/6/call/1.html  \nhttp://mobileshosting.com/2016/6/call/2.html  \nhttp://mobileshosting.com/2016/6/call/3.html  \nhttp://mobileshosting.com/2016/6/call/4.html  \nhttp://mobileshosting.com/2016/6/call/5.html  \nhttp://mobileshosting.com/2016/6/call/6.html  \nhttp://mobileshosting.com/2016/6/call/7.html  \nhttp://mobileshosting.com/2016/6/call/8.html  \nhttp://mobileshosting.com/2016/6/call/9.html  \nhttp://mobileshosting.com/2016/6/call/10.html\r\n\r\nFormat                                   : Matroska\r\nFormat version                           : Version 4 / Version 2\r\nFile size                                : 689 MiB\r\nDuration                                 : 2h 13mn\r\nOverall bit rate                         : 721 Kbps\r\nMovie name                               : Raman Raghav 2.0 2016 Hindi Movies DVDScr XviD AAC New Source ☻rDX☻\r\n\r\nVideo\r\nID                                       : 1\r\nFormat                                   : MPEG-4 Visual\r\nFormat profile                           : Advanced   \r\nFormat settings, BVOP                    : Yes\r\nFormat settings, QPel                    : Yes\r\nFormat settings, GMC                     : No warppoints\r\nFormat settings, Matrix                  : Default (H.263)\r\nCodec ID                                 : V_MS/VFW/FOURCC / XVID\r\nCodec ID/Hint                            : XviD\r\nDuration                                 : 2h 13mn\r\nBit rate                                 : 579 Kbps\r\nWidth                                    : 640 pixels\r\nHeight                                   : 272 pixels\r\nDisplay aspect ratio                     : 2.35:1\r\nFrame rate mode                          : Constant\r\nFrame rate                               : 25.000 fps\r\nColor space                              : YUV\r\nChroma subsampling                       : 4:2:0\r\nBit depth                                : 8 bits\r\nScan type                                : Progressive\r\nCompression mode                         : Lossy\r\nBits/(Pixel*Frame)                       : 0.133\r\nStream size                              : 553 MiB (80%)\r\nTitle                                    : ☻rDX☻\r\nWriting library                          : XviD 1.2.1 (UTC 2008-12-04)\r\nDefault                                  : Yes\r\nForced                                   : No\r\n\r\nAudio\r\nID                                       : 2\r\nFormat                                   : MPEG Audio\r\nFormat version                           : Version 1\r\nFormat profile                           : Layer 3\r\nMode                                     : Joint stereo\r\nMode extension                           : MS Stereo\r\nCodec ID                                 : A_MPEG/L3\r\nCodec ID/Hint                            : MP3\r\nDuration                                 : 2h 13mn\r\nBit rate mode                            : Constant\r\nBit rate                                 : 128 Kbps\r\nChannel(s)                               : 2 channels\r\nSampling rate                            : 48.0 KHz\r\nCompression mode                         : Lossy\r\nStream size                              : 122 MiB (18%)\r\nTitle                                    : ☻rDX☻\r\nWriting library                          : LAME3.99r\r\nEncoding settings                        : -m j -V 4 -q 2 -lowpass 17 -b 128\r\nDefault                                  : Yes\r\nForced                                   : No\r\n\r\nIMDB \nhttp://www.imdb.com/title/tt5662932/","torrent":{"xt":"urn:btih:591c8ee1c47e529ebd4e8427d201f63e7d12258e","amp;dn":"Raman+Raghav+2.0+2016+Movies+DVDScr+XviD+AAC+New+%2BSample+%7E+%E2%98%BBrDX%E2%98%BB","amp;tr":["udp%3A%2F%2Ftracker.leechers-paradise.org%3A6969","udp%3A%2F%2Fzer0day.ch%3A1337","udp%3A%2F%2Fopen.demonii.com%3A1337","udp%3A%2F%2Ftracker.coppersurfer.tk%3A6969","udp%3A%2F%2Fexodus.desync.com%3A6969"],"infoHash":"591c8ee1c47e529ebd4e8427d201f63e7d12258e","infoHashBuffer":{"type":"Buffer","data":[89,28,142,225,196,126,82,158,189,78,132,39,210,1,246,62,125,18,37,142]},"announce":[],"urlList":[]}}